<?xml version="1.0" encoding="UTF-8"?>
<svg xmlns="http://www.w3.org/2000/svg" xmlns:xlink="http://www.w3.org/1999/xlink" width="48px" height="48px" viewBox="0 0 48 48" version="1.1">
<g id="surface1">
<path style="fill-rule:nonzero;fill:rgb(96.470588%,76.470588%,34.509804%);fill-opacity:1;stroke-width:0.0049152;stroke-linecap:butt;stroke-linejoin:miter;stroke:rgb(100%,100%,100%);stroke-opacity:1;stroke-miterlimit:4;" d="M 406.76 87.8 C 507.32 188.36 507.32 351.36 406.76 451.92 C 292.48 566.2 288.84 406.84 188.28 306.28 C 87.76 205.72 -73.48 203.92 42.64 87.8 C 143.2 -12.76 306.2 -12.76 406.76 87.8 Z M 406.76 87.8 " transform="matrix(0.0976562,0,0,0.0976562,0,0)"/>
<path style="fill-rule:nonzero;fill:rgb(98.823529%,83.137255%,38.431373%);fill-opacity:1;stroke-width:0.0049152;stroke-linecap:butt;stroke-linejoin:miter;stroke:rgb(100%,100%,100%);stroke-opacity:1;stroke-miterlimit:4;" d="M 413.84 75.4 C 514.4 175.96 514.4 338.96 413.84 439.52 C 299.56 553.8 295.92 394.44 195.36 293.88 C 94.84 193.32 -66.4 191.52 49.72 75.4 C 150.28 -25.12 313.28 -25.12 413.84 75.4 Z M 413.84 75.4 " transform="matrix(0.0976562,0,0,0.0976562,0,0)"/>
<path style="fill-rule:nonzero;fill:rgb(86.27451%,52.941176%,26.666667%);fill-opacity:1;stroke-width:0.0049152;stroke-linecap:butt;stroke-linejoin:miter;stroke:rgb(100%,100%,100%);stroke-opacity:1;stroke-miterlimit:4;" d="M 137.44 121.56 C 137.44 143.56 119.6 161.4 97.6 161.4 C 75.56 161.4 57.72 143.56 57.72 121.56 C 57.72 99.52 75.56 81.68 97.6 81.68 C 119.6 81.68 137.44 99.52 137.44 121.56 Z M 137.44 121.56 " transform="matrix(0.0976562,0,0,0.0976562,0,0)"/>
<path style="fill-rule:nonzero;fill:rgb(100%,100%,100%);fill-opacity:1;stroke-width:0.0049152;stroke-linecap:butt;stroke-linejoin:miter;stroke:rgb(100%,100%,100%);stroke-opacity:1;stroke-miterlimit:4;" d="M 249.32 75.04 C 249.32 97.04 231.44 114.92 209.44 114.92 C 187.44 114.92 169.6 97.04 169.6 75.04 C 169.6 53.04 187.44 35.2 209.44 35.2 C 231.44 35.2 249.32 53.04 249.32 75.04 Z M 249.32 75.04 " transform="matrix(0.0976562,0,0,0.0976562,0,0)"/>
<path style="fill-rule:nonzero;fill:rgb(89.803922%,38.823529%,32.54902%);fill-opacity:1;stroke-width:0.0049152;stroke-linecap:butt;stroke-linejoin:miter;stroke:rgb(100%,100%,100%);stroke-opacity:1;stroke-miterlimit:4;" d="M 373 96.64 C 373 118.64 355.16 136.48 333.16 136.48 C 311.16 136.48 293.32 118.64 293.32 96.64 C 293.32 74.64 311.16 56.8 333.16 56.8 C 355.16 56.8 373 74.64 373 96.64 Z M 373 96.64 " transform="matrix(0.0976562,0,0,0.0976562,0,0)"/>
<path style="fill-rule:nonzero;fill:rgb(15.294118%,63.529412%,85.882353%);fill-opacity:1;stroke-width:0.0049152;stroke-linecap:butt;stroke-linejoin:miter;stroke:rgb(100%,100%,100%);stroke-opacity:1;stroke-miterlimit:4;" d="M 446.88 190.56 C 446.88 212.56 429.04 230.4 407.04 230.4 C 385.04 230.4 367.2 212.56 367.2 190.56 C 367.2 168.56 385.04 150.72 407.04 150.72 C 429.04 150.72 446.88 168.56 446.88 190.56 Z M 446.88 190.56 " transform="matrix(0.0976562,0,0,0.0976562,0,0)"/>
<path style="fill-rule:nonzero;fill:rgb(39.215686%,47.45098%,54.117647%);fill-opacity:1;stroke-width:0.0049152;stroke-linecap:butt;stroke-linejoin:miter;stroke:rgb(100%,100%,100%);stroke-opacity:1;stroke-miterlimit:4;" d="M 446.88 310.12 C 446.88 332.12 429.04 349.96 407.04 349.96 C 385.04 349.96 367.2 332.12 367.2 310.12 C 367.2 288.12 385.04 270.28 407.04 270.28 C 429.04 270.28 446.88 288.12 446.88 310.12 Z M 446.88 310.12 " transform="matrix(0.0976562,0,0,0.0976562,0,0)"/>
<path style="fill-rule:nonzero;fill:rgb(80.784314%,25.490196%,17.647059%);fill-opacity:1;stroke-width:0.0049152;stroke-linecap:butt;stroke-linejoin:miter;stroke:rgb(100%,100%,100%);stroke-opacity:1;stroke-miterlimit:4;" d="M 389.6 399.84 C 389.6 421.84 371.76 439.68 349.76 439.68 C 327.72 439.68 309.88 421.84 309.88 399.84 C 309.88 377.8 327.72 359.96 349.76 359.96 C 371.76 359.96 389.6 377.8 389.6 399.84 Z M 389.6 399.84 " transform="matrix(0.0976562,0,0,0.0976562,0,0)"/>
<path style="fill-rule:nonzero;fill:rgb(86.27451%,52.941176%,26.666667%);fill-opacity:1;stroke-width:0.0049152;stroke-linecap:butt;stroke-linejoin:miter;stroke:rgb(100%,100%,100%);stroke-opacity:1;stroke-miterlimit:4;" d="M 221.08 134.48 L 103 481 C 101.6 485.08 103.72 489.52 107.76 491.04 C 111.8 492.52 116.28 490.52 117.92 486.52 L 254.28 146.8 Z M 221.08 134.48 " transform="matrix(0.0976562,0,0,0.0976562,0,0)"/>
<path style="fill-rule:nonzero;fill:rgb(92.156863%,94.117647%,95.294118%);fill-opacity:1;stroke-width:0.0049152;stroke-linecap:butt;stroke-linejoin:miter;stroke:rgb(100%,100%,100%);stroke-opacity:1;stroke-miterlimit:4;" d="M 225.522759 109.778943 L 260.93513 109.786535 L 260.935798 141.654888 L 225.523427 141.647296 Z M 225.522759 109.778943 " transform="matrix(-0.0915625,-0.0339551,0.0339551,-0.0915625,41.757812,32.045215)"/>
<path style="fill-rule:nonzero;fill:rgb(39.215686%,47.45098%,54.117647%);fill-opacity:1;stroke-width:0.0049152;stroke-linecap:butt;stroke-linejoin:miter;stroke:rgb(100%,100%,100%);stroke-opacity:1;stroke-miterlimit:4;" d="M 270.88 95.56 C 268.4 93 265.6 89.88 262.04 90.08 C 260.24 90.2 258.56 91.2 256.76 91.48 C 253.32 92.08 249.64 89.68 248.72 86.32 C 248.28 84.64 248.44 82.88 247.88 81.24 C 247.8 81 247.64 80.76 247.52 80.52 C 239.48 88 233.16 92.92 230.96 98.84 C 229.52 102.68 229.36 106.64 230.16 110.36 L 263.12 122.6 C 266.16 120.28 268.6 117.16 270.04 113.32 C 271.08 110.48 271.96 104.36 272.6 97.12 C 272.04 96.56 271.4 96.12 270.88 95.56 Z M 270.88 95.56 " transform="matrix(0.0976562,0,0,0.0976562,0,0)"/>
<path style="fill-rule:nonzero;fill:rgb(89.803922%,38.823529%,32.54902%);fill-opacity:1;stroke-width:0.0049152;stroke-linecap:butt;stroke-linejoin:miter;stroke:rgb(100%,100%,100%);stroke-opacity:1;stroke-miterlimit:4;" d="M 248.72 86.32 C 249.64 89.68 253.32 92.08 256.76 91.48 C 258.56 91.2 260.24 90.2 262.04 90.08 C 265.6 89.88 268.4 93 270.88 95.56 C 271.4 96.12 272.04 96.56 272.6 97.12 C 274.4 76.84 274.16 47.56 269.56 54.64 C 261.88 66.52 254.12 74.36 247.52 80.52 C 247.64 80.76 247.8 81 247.88 81.24 C 248.44 82.88 248.28 84.64 248.72 86.32 Z M 248.72 86.32 " transform="matrix(0.0976562,0,0,0.0976562,0,0)"/>
</g>
</svg>
